<?xml version="1.0" encoding="UTF-8" standalone="no"?>
<!DOCTYPE svg PUBLIC "-//W3C//DTD SVG 1.1//EN"
 "http://www.w3.org/Graphics/SVG/1.1/DTD/svg11.dtd">
<!-- Generated by graphviz version 2.47.0 (20210316.0004)
 -->
<!-- Title: dependencies Pages: 1 -->
<svg width="4051pt" height="284pt"
 viewBox="0.00 0.00 4051.00 284.00" xmlns="http://www.w3.org/2000/svg" xmlns:xlink="http://www.w3.org/1999/xlink">
<g id="graph0" class="graph" transform="scale(1 1) rotate(0) translate(4 280)">
<title>dependencies</title>
<polygon fill="white" stroke="transparent" points="-4,4 -4,-280 4047,-280 4047,4 -4,4"/>
<text text-anchor="start" x="2000.51" y="-42.4" font-family="Times-12" font-weight="bold" font-size="14.00">Legend</text>
<polygon fill="#ffffb3" stroke="transparent" points="1787.5,-10 1787.5,-30 1807.5,-30 1807.5,-10 1787.5,-10"/>
<text text-anchor="start" x="1811.13" y="-15.4" font-family="Times-12" font-size="14.00"> &#160;Declarations</text>
<polygon fill="#8dd3c7" stroke="transparent" points="1900.5,-10 1900.5,-30 1920.5,-30 1920.5,-10 1900.5,-10"/>
<text text-anchor="start" x="1924.23" y="-15.4" font-family="Times-12" font-size="14.00"> &#160;Module</text>
<polygon fill="#80b1d3" stroke="transparent" points="1986.5,-10 1986.5,-30 2006.5,-30 2006.5,-10 1986.5,-10"/>
<text text-anchor="start" x="2010.28" y="-15.4" font-family="Times-12" font-size="14.00"> &#160;Bootstrap</text>
<polygon fill="#fdb462" stroke="transparent" points="2083.5,-10 2083.5,-30 2103.5,-30 2103.5,-10 2083.5,-10"/>
<text text-anchor="start" x="2107.17" y="-15.4" font-family="Times-12" font-size="14.00"> &#160;Providers</text>
<polygon fill="#fb8072" stroke="transparent" points="2179.5,-10 2179.5,-30 2199.5,-30 2199.5,-10 2179.5,-10"/>
<text text-anchor="start" x="2203.23" y="-15.4" font-family="Times-12" font-size="14.00"> &#160;Exports</text>
<g id="clust1" class="cluster">
<title>cluster_AppModule</title>
<polygon fill="none" stroke="black" stroke-dasharray="1,5" points="8,-70 8,-268 4035,-268 4035,-70 8,-70"/>
</g>
<g id="clust27" class="cluster">
<title>cluster_AppModule_providers</title>
<polygon fill="none" stroke="black" points="3865,-78 3865,-130 4027,-130 4027,-78 3865,-78"/>
</g>
<g id="clust24" class="cluster">
<title>cluster_AppModule_imports</title>
<polygon fill="none" stroke="black" points="3713,-78 3713,-130 3857,-130 3857,-78 3713,-78"/>
</g>
<g id="clust26" class="cluster">
<title>cluster_AppModule_bootstrap</title>
<polygon fill="none" stroke="black" points="1967,-208 1967,-260 2091,-260 2091,-208 1967,-208"/>
</g>
<g id="clust2" class="cluster">
<title>cluster_AppModule_declarations</title>
<polygon fill="none" stroke="black" points="16,-78 16,-130 3705,-130 3705,-78 16,-78"/>
</g>
<!-- AltaCentroComponent -->
<g id="node1" class="node">
<title>AltaCentroComponent</title>
<polygon fill="#ffffb3" stroke="black" points="3696.54,-122 3553.46,-122 3553.46,-86 3696.54,-86 3696.54,-122"/>
<text text-anchor="middle" x="3625" y="-99.8" font-family="Times,serif" font-size="14.00">AltaCentroComponent</text>
</g>
<!-- AppModule -->
<g id="node22" class="node">
<title>AppModule</title>
<polygon fill="#8dd3c7" stroke="black" points="2070.66,-187 2067.66,-191 2046.66,-191 2043.66,-187 1987.34,-187 1987.34,-151 2070.66,-151 2070.66,-187"/>
<text text-anchor="middle" x="2029" y="-164.8" font-family="Times,serif" font-size="14.00">AppModule</text>
</g>
<!-- AltaCentroComponent&#45;&gt;AppModule -->
<g id="edge1" class="edge">
<title>AltaCentroComponent&#45;&gt;AppModule</title>
<path fill="none" stroke="black" d="M3625,-122.16C3625,-144.35 3625,-179 3625,-179 3625,-179 2080.87,-179 2080.87,-179"/>
<polygon fill="black" stroke="black" points="2080.87,-175.5 2070.87,-179 2080.87,-182.5 2080.87,-175.5"/>
</g>
<!-- AppComponent -->
<g id="node2" class="node">
<title>AppComponent</title>
<polygon fill="#ffffb3" stroke="black" points="3535.94,-122 3430.06,-122 3430.06,-86 3535.94,-86 3535.94,-122"/>
<text text-anchor="middle" x="3483" y="-99.8" font-family="Times,serif" font-size="14.00">AppComponent</text>
</g>
<!-- AppComponent&#45;&gt;AppModule -->
<g id="edge2" class="edge">
<title>AppComponent&#45;&gt;AppModule</title>
<path fill="none" stroke="black" d="M3483,-122.17C3483,-143.5 3483,-176 3483,-176 3483,-176 2080.95,-176 2080.95,-176"/>
<polygon fill="black" stroke="black" points="2080.95,-172.5 2070.95,-176 2080.95,-179.5 2080.95,-172.5"/>
</g>
<!-- AsignarUsuariosFormacionModalComponent -->
<g id="node3" class="node">
<title>AsignarUsuariosFormacionModalComponent</title>
<polygon fill="#ffffb3" stroke="black" points="3412.11,-122 3139.89,-122 3139.89,-86 3412.11,-86 3412.11,-122"/>
<text text-anchor="middle" x="3276" y="-99.8" font-family="Times,serif" font-size="14.00">AsignarUsuariosFormacionModalComponent</text>
</g>
<!-- AsignarUsuariosFormacionModalComponent&#45;&gt;AppModule -->
<g id="edge3" class="edge">
<title>AsignarUsuariosFormacionModalComponent&#45;&gt;AppModule</title>
<path fill="none" stroke="black" d="M3276,-122.03C3276,-142.77 3276,-174 3276,-174 3276,-174 2080.85,-174 2080.85,-174"/>
<polygon fill="black" stroke="black" points="2080.85,-170.5 2070.85,-174 2080.85,-177.5 2080.85,-170.5"/>
</g>
<!-- CrearFormacionModalComponent -->
<g id="node4" class="node">
<title>CrearFormacionModalComponent</title>
<polygon fill="#ffffb3" stroke="black" points="3121.62,-122 2912.38,-122 2912.38,-86 3121.62,-86 3121.62,-122"/>
<text text-anchor="middle" x="3017" y="-99.8" font-family="Times,serif" font-size="14.00">CrearFormacionModalComponent</text>
</g>
<!-- CrearFormacionModalComponent&#45;&gt;AppModule -->
<g id="edge4" class="edge">
<title>CrearFormacionModalComponent&#45;&gt;AppModule</title>
<path fill="none" stroke="black" d="M3017,-122.31C3017,-142.15 3017,-171 3017,-171 3017,-171 2080.82,-171 2080.82,-171"/>
<polygon fill="black" stroke="black" points="2080.82,-167.5 2070.82,-171 2080.82,-174.5 2080.82,-167.5"/>
</g>
<!-- EditUserComponent -->
<g id="node5" class="node">
<title>EditUserComponent</title>
<polygon fill="#ffffb3" stroke="black" points="2894.59,-122 2763.41,-122 2763.41,-86 2894.59,-86 2894.59,-122"/>
<text text-anchor="middle" x="2829" y="-99.8" font-family="Times,serif" font-size="14.00">EditUserComponent</text>
</g>
<!-- EditUserComponent&#45;&gt;AppModule -->
<g id="edge5" class="edge">
<title>EditUserComponent&#45;&gt;AppModule</title>
<path fill="none" stroke="black" d="M2829,-122.17C2829,-141.09 2829,-168 2829,-168 2829,-168 2080.89,-168 2080.89,-168"/>
<polygon fill="black" stroke="black" points="2080.89,-164.5 2070.89,-168 2080.89,-171.5 2080.89,-164.5"/>
</g>
<!-- EditarFormacionModalComponent -->
<g id="node6" class="node">
<title>EditarFormacionModalComponent</title>
<polygon fill="#ffffb3" stroke="black" points="2745.24,-122 2532.76,-122 2532.76,-86 2745.24,-86 2745.24,-122"/>
<text text-anchor="middle" x="2639" y="-99.8" font-family="Times,serif" font-size="14.00">EditarFormacionModalComponent</text>
</g>
<!-- EditarFormacionModalComponent&#45;&gt;AppModule -->
<g id="edge6" class="edge">
<title>EditarFormacionModalComponent&#45;&gt;AppModule</title>
<path fill="none" stroke="black" d="M2639,-122.3C2639,-140.27 2639,-165 2639,-165 2639,-165 2080.93,-165 2080.93,-165"/>
<polygon fill="black" stroke="black" points="2080.93,-161.5 2070.93,-165 2080.93,-168.5 2080.93,-161.5"/>
</g>
<!-- FooterComponent -->
<g id="node7" class="node">
<title>FooterComponent</title>
<polygon fill="#ffffb3" stroke="black" points="2514.88,-122 2397.12,-122 2397.12,-86 2514.88,-86 2514.88,-122"/>
<text text-anchor="middle" x="2456" y="-99.8" font-family="Times,serif" font-size="14.00">FooterComponent</text>
</g>
<!-- FooterComponent&#45;&gt;AppModule -->
<g id="edge7" class="edge">
<title>FooterComponent&#45;&gt;AppModule</title>
<path fill="none" stroke="black" d="M2426.53,-122.24C2426.53,-137.57 2426.53,-157 2426.53,-157 2426.53,-157 2080.79,-157 2080.79,-157"/>
<polygon fill="black" stroke="black" points="2080.79,-153.5 2070.79,-157 2080.79,-160.5 2080.79,-153.5"/>
</g>
<!-- FooterComponent&#45;&gt;AppModule -->
<g id="edge8" class="edge">
<title>FooterComponent&#45;&gt;AppModule</title>
<path fill="none" stroke="black" d="M2456,-122.03C2456,-138.4 2456,-160 2456,-160 2456,-160 2080.72,-160 2080.72,-160"/>
<polygon fill="black" stroke="black" points="2080.72,-156.5 2070.72,-160 2080.72,-163.5 2080.72,-156.5"/>
</g>
<!-- FooterComponent&#45;&gt;AppModule -->
<g id="edge9" class="edge">
<title>FooterComponent&#45;&gt;AppModule</title>
<path fill="none" stroke="black" d="M2485.47,-122.02C2485.47,-139.37 2485.47,-163 2485.47,-163 2485.47,-163 2080.72,-163 2080.72,-163"/>
<polygon fill="black" stroke="black" points="2080.72,-159.5 2070.72,-163 2080.72,-166.5 2080.72,-159.5"/>
</g>
<!-- FormacionFormComponent -->
<g id="node8" class="node">
<title>FormacionFormComponent</title>
<polygon fill="#ffffb3" stroke="black" points="2379.32,-122 2206.68,-122 2206.68,-86 2379.32,-86 2379.32,-122"/>
<text text-anchor="middle" x="2293" y="-99.8" font-family="Times,serif" font-size="14.00">FormacionFormComponent</text>
</g>
<!-- FormacionFormComponent&#45;&gt;AppModule -->
<g id="edge10" class="edge">
<title>FormacionFormComponent&#45;&gt;AppModule</title>
<path fill="none" stroke="black" d="M2293,-122.05C2293,-136.37 2293,-154 2293,-154 2293,-154 2080.83,-154 2080.83,-154"/>
<polygon fill="black" stroke="black" points="2080.83,-150.5 2070.83,-154 2080.83,-157.5 2080.83,-150.5"/>
</g>
<!-- GoogleSignInComponent -->
<g id="node9" class="node">
<title>GoogleSignInComponent</title>
<polygon fill="#ffffb3" stroke="black" points="2188.88,-122 2029.12,-122 2029.12,-86 2188.88,-86 2188.88,-122"/>
<text text-anchor="middle" x="2109" y="-99.8" font-family="Times,serif" font-size="14.00">GoogleSignInComponent</text>
</g>
<!-- GoogleSignInComponent&#45;&gt;AppModule -->
<g id="edge11" class="edge">
<title>GoogleSignInComponent&#45;&gt;AppModule</title>
<path fill="none" stroke="black" d="M2049.94,-122.11C2049.94,-122.11 2049.94,-140.99 2049.94,-140.99"/>
<polygon fill="black" stroke="black" points="2046.44,-140.99 2049.94,-150.99 2053.44,-140.99 2046.44,-140.99"/>
</g>
<!-- HeaderComponent -->
<g id="node10" class="node">
<title>HeaderComponent</title>
<polygon fill="#ffffb3" stroke="black" points="2010.74,-122 1889.26,-122 1889.26,-86 2010.74,-86 2010.74,-122"/>
<text text-anchor="middle" x="1950" y="-99.8" font-family="Times,serif" font-size="14.00">HeaderComponent</text>
</g>
<!-- HeaderComponent&#45;&gt;AppModule -->
<g id="edge12" class="edge">
<title>HeaderComponent&#45;&gt;AppModule</title>
<path fill="none" stroke="black" d="M1999.02,-122.11C1999.02,-122.11 1999.02,-140.99 1999.02,-140.99"/>
<polygon fill="black" stroke="black" points="1995.52,-140.99 1999.02,-150.99 2002.52,-140.99 1995.52,-140.99"/>
</g>
<!-- InfoCentroComponent -->
<g id="node11" class="node">
<title>InfoCentroComponent</title>
<polygon fill="#ffffb3" stroke="black" points="1871.26,-122 1728.74,-122 1728.74,-86 1871.26,-86 1871.26,-122"/>
<text text-anchor="middle" x="1800" y="-99.8" font-family="Times,serif" font-size="14.00">InfoCentroComponent</text>
</g>
<!-- InfoCentroComponent&#45;&gt;AppModule -->
<g id="edge13" class="edge">
<title>InfoCentroComponent&#45;&gt;AppModule</title>
<path fill="none" stroke="black" d="M1800,-122.05C1800,-136.37 1800,-154 1800,-154 1800,-154 1977.26,-154 1977.26,-154"/>
<polygon fill="black" stroke="black" points="1977.26,-157.5 1987.26,-154 1977.26,-150.5 1977.26,-157.5"/>
</g>
<!-- InfoCursoComponent -->
<g id="node12" class="node">
<title>InfoCursoComponent</title>
<polygon fill="#ffffb3" stroke="black" points="1711.1,-122 1572.9,-122 1572.9,-86 1711.1,-86 1711.1,-122"/>
<text text-anchor="middle" x="1642" y="-99.8" font-family="Times,serif" font-size="14.00">InfoCursoComponent</text>
</g>
<!-- InfoCursoComponent&#45;&gt;AppModule -->
<g id="edge14" class="edge">
<title>InfoCursoComponent&#45;&gt;AppModule</title>
<path fill="none" stroke="black" d="M1642,-122.24C1642,-137.57 1642,-157 1642,-157 1642,-157 1977.22,-157 1977.22,-157"/>
<polygon fill="black" stroke="black" points="1977.22,-160.5 1987.22,-157 1977.22,-153.5 1977.22,-160.5"/>
</g>
<!-- InfoEducadorComponent -->
<g id="node13" class="node">
<title>InfoEducadorComponent</title>
<polygon fill="#ffffb3" stroke="black" points="1555.3,-122 1396.7,-122 1396.7,-86 1555.3,-86 1555.3,-122"/>
<text text-anchor="middle" x="1476" y="-99.8" font-family="Times,serif" font-size="14.00">InfoEducadorComponent</text>
</g>
<!-- InfoEducadorComponent&#45;&gt;AppModule -->
<g id="edge15" class="edge">
<title>InfoEducadorComponent&#45;&gt;AppModule</title>
<path fill="none" stroke="black" d="M1476,-122.03C1476,-138.4 1476,-160 1476,-160 1476,-160 1976.98,-160 1976.98,-160"/>
<polygon fill="black" stroke="black" points="1976.98,-163.5 1986.98,-160 1976.98,-156.5 1976.98,-163.5"/>
</g>
<!-- InfoFormacionComponent -->
<g id="node14" class="node">
<title>InfoFormacionComponent</title>
<polygon fill="#ffffb3" stroke="black" points="1378.81,-122 1213.19,-122 1213.19,-86 1378.81,-86 1378.81,-122"/>
<text text-anchor="middle" x="1296" y="-99.8" font-family="Times,serif" font-size="14.00">InfoFormacionComponent</text>
</g>
<!-- InfoFormacionComponent&#45;&gt;AppModule -->
<g id="edge16" class="edge">
<title>InfoFormacionComponent&#45;&gt;AppModule</title>
<path fill="none" stroke="black" d="M1296,-122.02C1296,-139.37 1296,-163 1296,-163 1296,-163 1977.22,-163 1977.22,-163"/>
<polygon fill="black" stroke="black" points="1977.22,-166.5 1987.22,-163 1977.22,-159.5 1977.22,-166.5"/>
</g>
<!-- InscripcionFormacionComponent -->
<g id="node15" class="node">
<title>InscripcionFormacionComponent</title>
<polygon fill="#ffffb3" stroke="black" points="1195.46,-122 990.54,-122 990.54,-86 1195.46,-86 1195.46,-122"/>
<text text-anchor="middle" x="1093" y="-99.8" font-family="Times,serif" font-size="14.00">InscripcionFormacionComponent</text>
</g>
<!-- InscripcionFormacionComponent&#45;&gt;AppModule -->
<g id="edge17" class="edge">
<title>InscripcionFormacionComponent&#45;&gt;AppModule</title>
<path fill="none" stroke="black" d="M1093,-122.3C1093,-140.27 1093,-165 1093,-165 1093,-165 1977.27,-165 1977.27,-165"/>
<polygon fill="black" stroke="black" points="1977.27,-168.5 1987.27,-165 1977.27,-161.5 1977.27,-168.5"/>
</g>
<!-- MenuComponent -->
<g id="node16" class="node">
<title>MenuComponent</title>
<polygon fill="#ffffb3" stroke="black" points="972.99,-122 859.01,-122 859.01,-86 972.99,-86 972.99,-122"/>
<text text-anchor="middle" x="916" y="-99.8" font-family="Times,serif" font-size="14.00">MenuComponent</text>
</g>
<!-- MenuComponent&#45;&gt;AppModule -->
<g id="edge18" class="edge">
<title>MenuComponent&#45;&gt;AppModule</title>
<path fill="none" stroke="black" d="M935,-122.17C935,-141.09 935,-168 935,-168 935,-168 1977.12,-168 1977.12,-168"/>
<polygon fill="black" stroke="black" points="1977.12,-171.5 1987.12,-168 1977.12,-164.5 1977.12,-171.5"/>
</g>
<!-- MenuComponent&#45;&gt;AppModule -->
<g id="edge19" class="edge">
<title>MenuComponent&#45;&gt;AppModule</title>
<path fill="none" stroke="black" d="M897,-122.31C897,-142.15 897,-171 897,-171 897,-171 1977.03,-171 1977.03,-171"/>
<polygon fill="black" stroke="black" points="1977.03,-174.5 1987.03,-171 1977.03,-167.5 1977.03,-174.5"/>
</g>
<!-- ModificarCentroComponent -->
<g id="node17" class="node">
<title>ModificarCentroComponent</title>
<polygon fill="#ffffb3" stroke="black" points="840.91,-122 665.09,-122 665.09,-86 840.91,-86 840.91,-122"/>
<text text-anchor="middle" x="753" y="-99.8" font-family="Times,serif" font-size="14.00">ModificarCentroComponent</text>
</g>
<!-- ModificarCentroComponent&#45;&gt;AppModule -->
<g id="edge20" class="edge">
<title>ModificarCentroComponent&#45;&gt;AppModule</title>
<path fill="none" stroke="black" d="M753,-122.03C753,-142.77 753,-174 753,-174 753,-174 1977.27,-174 1977.27,-174"/>
<polygon fill="black" stroke="black" points="1977.27,-177.5 1987.27,-174 1977.27,-170.5 1977.27,-177.5"/>
</g>
<!-- NoAutorizadoComponent -->
<g id="node18" class="node">
<title>NoAutorizadoComponent</title>
<polygon fill="#ffffb3" stroke="black" points="647.92,-122 486.08,-122 486.08,-86 647.92,-86 647.92,-122"/>
<text text-anchor="middle" x="567" y="-99.8" font-family="Times,serif" font-size="14.00">NoAutorizadoComponent</text>
</g>
<!-- NoAutorizadoComponent&#45;&gt;AppModule -->
<g id="edge21" class="edge">
<title>NoAutorizadoComponent&#45;&gt;AppModule</title>
<path fill="none" stroke="black" d="M567,-122.17C567,-143.5 567,-176 567,-176 567,-176 1977.21,-176 1977.21,-176"/>
<polygon fill="black" stroke="black" points="1977.21,-179.5 1987.21,-176 1977.21,-172.5 1977.21,-179.5"/>
</g>
<!-- TemplateComponent -->
<g id="node19" class="node">
<title>TemplateComponent</title>
<polygon fill="#ffffb3" stroke="black" points="468.2,-122 333.8,-122 333.8,-86 468.2,-86 468.2,-122"/>
<text text-anchor="middle" x="401" y="-99.8" font-family="Times,serif" font-size="14.00">TemplateComponent</text>
</g>
<!-- TemplateComponent&#45;&gt;AppModule -->
<g id="edge22" class="edge">
<title>TemplateComponent&#45;&gt;AppModule</title>
<path fill="none" stroke="black" d="M401,-122.16C401,-144.35 401,-179 401,-179 401,-179 1977.12,-179 1977.12,-179"/>
<polygon fill="black" stroke="black" points="1977.12,-182.5 1987.12,-179 1977.12,-175.5 1977.12,-182.5"/>
</g>
<!-- UserFileComponent -->
<g id="node20" class="node">
<title>UserFileComponent</title>
<polygon fill="#ffffb3" stroke="black" points="315.54,-122 186.46,-122 186.46,-86 315.54,-86 315.54,-122"/>
<text text-anchor="middle" x="251" y="-99.8" font-family="Times,serif" font-size="14.00">UserFileComponent</text>
</g>
<!-- UserFileComponent&#45;&gt;AppModule -->
<g id="edge23" class="edge">
<title>UserFileComponent&#45;&gt;AppModule</title>
<path fill="none" stroke="black" d="M251,-122.09C251,-145.13 251,-182 251,-182 251,-182 1977.24,-182 1977.24,-182"/>
<polygon fill="black" stroke="black" points="1977.24,-185.5 1987.24,-182 1977.24,-178.5 1977.24,-185.5"/>
</g>
<!-- UserModalComponent -->
<g id="node21" class="node">
<title>UserModalComponent</title>
<polygon fill="#ffffb3" stroke="black" points="168.31,-122 23.69,-122 23.69,-86 168.31,-86 168.31,-122"/>
<text text-anchor="middle" x="96" y="-99.8" font-family="Times,serif" font-size="14.00">UserModalComponent</text>
</g>
<!-- UserModalComponent&#45;&gt;AppModule -->
<g id="edge24" class="edge">
<title>UserModalComponent&#45;&gt;AppModule</title>
<path fill="none" stroke="black" d="M96,-122.38C96,-146.28 96,-185 96,-185 96,-185 1977.28,-185 1977.28,-185"/>
<polygon fill="black" stroke="black" points="1977.28,-188.5 1987.28,-185 1977.28,-181.5 1977.28,-188.5"/>
</g>
<!-- AppComponent  -->
<g id="node24" class="node">
<title>AppComponent </title>
<polygon fill="#80b1d3" stroke="black" points="2083.44,-252 1974.56,-252 1974.56,-216 2083.44,-216 2083.44,-252"/>
<text text-anchor="middle" x="2029" y="-229.8" font-family="Times,serif" font-size="14.00">AppComponent </text>
</g>
<!-- AppModule&#45;&gt;AppComponent  -->
<g id="edge26" class="edge">
<title>AppModule&#45;&gt;AppComponent </title>
<path fill="none" stroke="black" stroke-dasharray="1,5" d="M2029,-187.11C2029,-187.11 2029,-205.99 2029,-205.99"/>
<polygon fill="black" stroke="black" points="2025.5,-205.99 2029,-215.99 2032.5,-205.99 2025.5,-205.99"/>
</g>
<!-- AppRoutingModule -->
<g id="node23" class="node">
<title>AppRoutingModule</title>
<polygon fill="#8dd3c7" stroke="black" points="3849.27,-122 3846.27,-126 3825.27,-126 3822.27,-122 3720.73,-122 3720.73,-86 3849.27,-86 3849.27,-122"/>
<text text-anchor="middle" x="3785" y="-99.8" font-family="Times,serif" font-size="14.00">AppRoutingModule</text>
</g>
<!-- AppRoutingModule&#45;&gt;AppModule -->
<g id="edge25" class="edge">
<title>AppRoutingModule&#45;&gt;AppModule</title>
<path fill="none" stroke="black" d="M3785,-122.09C3785,-145.13 3785,-182 3785,-182 3785,-182 2080.67,-182 2080.67,-182"/>
<polygon fill="black" stroke="black" points="2080.68,-178.5 2070.67,-182 2080.67,-185.5 2080.68,-178.5"/>
</g>
<!-- AuthInterceptor -->
<g id="node25" class="node">
<title>AuthInterceptor</title>
<ellipse fill="#fdb462" stroke="black" cx="3946" cy="-104" rx="72.91" ry="18"/>
<text text-anchor="middle" x="3946" y="-99.8" font-family="Times,serif" font-size="14.00">AuthInterceptor</text>
</g>
<!-- AuthInterceptor&#45;&gt;AppModule -->
<g id="edge27" class="edge">
<title>AuthInterceptor&#45;&gt;AppModule</title>
<path fill="none" stroke="black" d="M3946,-122.38C3946,-146.28 3946,-185 3946,-185 3946,-185 2080.82,-185 2080.82,-185"/>
<polygon fill="black" stroke="black" points="2080.82,-181.5 2070.82,-185 2080.82,-188.5 2080.82,-181.5"/>
</g>
</g>
</svg>
